<?xml version="1.0" encoding="UTF-8"?>
<!DOCTYPE svg PUBLIC "-//W3C//DTD SVG 1.1//EN" "http://www.w3.org/Graphics/SVG/1.1/DTD/svg11.dtd">
<svg version="1.1" xmlns="http://www.w3.org/2000/svg" xmlns:xlink="http://www.w3.org/1999/xlink" x="0" y="0" width="574.416" height="169.766" viewBox="0, 0, 574.416, 169.766">
  <g id="Layer_1" transform="translate(-17.251, -40.288)">
    <path d="M33.632,74.116 L33.22,76 L30.524,75.988 L35.14,55.148 L32.476,55.124 L32.476,47.536 L40.264,44.044 L48.056,47.536 L48.056,55.12 L45.392,55.144 L50,75.984 L47.312,75.996 L46.9,74.12 L40.264,66.036 L33.632,74.116 z M34.72,69.208 L38.796,64.24 L36.444,61.388 L34.72,69.208 z M43.452,58.56 L42.704,55.14 L37.828,55.14 L37.08,58.556 L40.264,62.464 L43.452,58.56 z M44.08,61.388 L41.728,64.24 L45.804,69.208 L44.08,61.388 z M35.4,52.428 L45.128,52.428 L45.128,48.6 L35.4,48.6 L35.4,52.428 z" fill="#000000"/>
    <path d="M62.632,174.783 L62.22,176.667 L59.524,176.655 L63.765,157.507 L64.14,155.815 L61.476,155.791 L61.476,148.203 L69.264,144.711 L77.056,148.203 L77.056,155.787 L74.392,155.811 L79,176.651 L76.312,176.663 L75.9,174.787 L69.264,166.703 L62.632,174.783 z M63.72,169.875 L67.796,164.907 L65.444,162.055 L63.72,169.875 z M72.452,159.227 L71.704,155.807 L66.828,155.807 L66.08,159.223 L69.264,163.131 L72.452,159.227 z M73.08,162.055 L70.728,164.907 L74.804,169.875 L73.08,162.055 z M64.4,153.095 L74.128,153.095 L74.128,149.267 L64.4,149.267 L64.4,153.095 z" fill="#000000"/>
    <path d="M82.108,122.927 L81.696,124.811 L79,124.799 L83.241,105.652 L83.616,103.959 L80.952,103.935 L80.952,96.347 L88.74,92.855 L96.532,96.347 L96.532,103.931 L93.868,103.955 L98.476,124.795 L95.788,124.807 L95.376,122.931 L88.74,114.847 L82.108,122.927 z M83.196,118.019 L87.272,113.051 L84.92,110.199 L83.196,118.019 z M91.928,107.371 L91.18,103.951 L86.304,103.951 L85.556,107.367 L88.74,111.275 L91.928,107.371 z M92.556,110.199 L90.204,113.051 L94.28,118.019 L92.556,110.199 z M83.876,101.239 L93.604,101.239 L93.604,97.411 L83.876,97.411 L83.876,101.239 z" fill="#000000"/>
    <path d="M297.333,96.333 z" fill="#000000"/>
    <g>
      <path d="M73.58,162.555 L179.075,122.925" fill-opacity="0" stroke="#000000" stroke-width="1"/>
      <path d="M180.13,125.733 L186.564,120.112 L178.02,120.117 z" fill="#000000" fill-opacity="1" stroke="#000000" stroke-width="1" stroke-opacity="1"/>
    </g>
    <g>
      <path d="M93.056,107.283 L178.501,108.344" fill-opacity="0" stroke="#000000" stroke-width="1"/>
      <path d="M178.463,111.344 L186.5,108.444 L178.538,105.344 z" fill="#000000" fill-opacity="1" stroke="#000000" stroke-width="1" stroke-opacity="1"/>
    </g>
    <g>
      <path d="M44.58,61.888 L178.5,62.149" fill-opacity="0" stroke="#000000" stroke-width="1"/>
      <path d="M178.494,65.149 L186.5,62.165 L178.506,59.149 z" fill="#000000" fill-opacity="1" stroke="#000000" stroke-width="1" stroke-opacity="1"/>
    </g>
    <text transform="matrix(1, 0, 0, 1, 40.262, 115.456)">
      <tspan x="-22.011" y="3.5" font-family="ArialMT" font-size="12" fill="#000000">Sensors</tspan>
    </text>
    <text transform="matrix(1, 0, 0, 1, 144.782, 200.888)">
      <tspan x="-49.125" y="1.833" font-family="ArialMT" font-size="12" fill="#000000">Transport Network</tspan>
    </text>
    <path d="M18.751,187.167 L274.418,187.167" fill-opacity="0" stroke="#000000" stroke-width="1"/>
    <path d="M274.418,187.167 L274.418,178.167" fill-opacity="0" stroke="#000000" stroke-width="1"/>
    <path d="M18.751,187.167 L18.751,178.167" fill-opacity="0" stroke="#000000" stroke-width="1"/>
    <g>
      <g>
        <path d="M310.006,87.786 L364.661,87.786 C369.911,87.786 374.167,91.454 374.167,95.979 L374.167,119.76 C374.167,124.285 369.911,127.953 364.661,127.953 L310.006,127.953 C304.756,127.953 300.5,124.285 300.5,119.76 L300.5,95.979 C300.5,91.454 304.756,87.786 310.006,87.786 z" fill="#FFFFFF"/>
        <path d="M310.006,87.786 L364.661,87.786 C369.911,87.786 374.167,91.454 374.167,95.979 L374.167,119.76 C374.167,124.285 369.911,127.953 364.661,127.953 L310.006,127.953 C304.756,127.953 300.5,124.285 300.5,119.76 L300.5,95.979 C300.5,91.454 304.756,87.786 310.006,87.786 z" fill-opacity="0" stroke="#000000" stroke-width="0.75"/>
      </g>
      <text transform="matrix(1, 0, 0, 1, 336.833, 112.953)">
        <tspan x="-29.687" y="-3.5" font-family="ArialMT" font-size="12" fill="#000000">Aggregator</tspan>
      </text>
    </g>
    <g>
      <g>
        <path d="M197.005,42.619 L251.661,42.619 C256.911,42.619 261.167,46.287 261.167,50.812 L261.167,74.593 C261.167,79.118 256.911,82.786 251.661,82.786 L197.005,82.786 C191.756,82.786 187.5,79.118 187.5,74.593 L187.5,50.812 C187.5,46.287 191.756,42.619 197.005,42.619 z" fill="#FFFFFF"/>
        <path d="M197.005,42.619 L251.661,42.619 C256.911,42.619 261.167,46.287 261.167,50.812 L261.167,74.593 C261.167,79.118 256.911,82.786 251.661,82.786 L197.005,82.786 C191.756,82.786 187.5,79.118 187.5,74.593 L187.5,50.812 C187.5,46.287 191.756,42.619 197.005,42.619 z" fill-opacity="0" stroke="#000000" stroke-width="0.75"/>
      </g>
      <text transform="matrix(1, 0, 0, 1, 224.833, 63.953)">
        <tspan x="-23.675" y="1.333" font-family="ArialMT" font-size="12" fill="#000000">Receiver</tspan>
      </text>
    </g>
    <g>
      <g>
        <path d="M197.005,87.786 L251.661,87.786 C256.911,87.786 261.167,91.454 261.167,95.979 L261.167,119.76 C261.167,124.285 256.911,127.953 251.661,127.953 L197.005,127.953 C191.756,127.953 187.5,124.285 187.5,119.76 L187.5,95.979 C187.5,91.454 191.756,87.786 197.005,87.786 z" fill="#FFFFFF"/>
        <path d="M197.005,87.786 L251.661,87.786 C256.911,87.786 261.167,91.454 261.167,95.979 L261.167,119.76 C261.167,124.285 256.911,127.953 251.661,127.953 L197.005,127.953 C191.756,127.953 187.5,124.285 187.5,119.76 L187.5,95.979 C187.5,91.454 191.756,87.786 197.005,87.786 z" fill-opacity="0" stroke="#000000" stroke-width="0.75"/>
      </g>
      <text transform="matrix(1, 0, 0, 1, 224.833, 109.119)">
        <tspan x="-23.675" y="1.333" font-family="ArialMT" font-size="12" fill="#000000">Receiver</tspan>
      </text>
    </g>
    <g>
      <path d="M261.167,108.456 L293.75,108.456" fill-opacity="0" stroke="#000000" stroke-width="0.75"/>
      <path d="M293.75,110.706 L299.75,108.456 L293.75,106.206 z" fill="#000000" fill-opacity="1" stroke="#000000" stroke-width="0.75" stroke-opacity="1"/>
    </g>
    <g>
      <path d="M261.167,61.888 L295.399,91.558" fill-opacity="0" stroke="#000000" stroke-width="0.75"/>
      <path d="M293.926,93.258 L299.933,95.487 L296.873,89.857 z" fill="#000000" fill-opacity="1" stroke="#000000" stroke-width="0.75" stroke-opacity="1"/>
    </g>
    <path d="M283.418,187.167 L463.833,187.167" fill-opacity="0" stroke="#000000" stroke-width="1"/>
    <path d="M463.833,186.667 L463.833,177.667" fill-opacity="0" stroke="#000000" stroke-width="1"/>
    <g>
      <path d="M391.005,87.786 L445.661,87.786 C450.911,87.786 455.167,91.454 455.167,95.979 L455.167,119.76 C455.167,124.285 450.911,127.953 445.661,127.953 L391.005,127.953 C385.756,127.953 381.5,124.285 381.5,119.76 L381.5,95.979 C381.5,91.454 385.756,87.786 391.005,87.786 z" fill="#FFFFFF"/>
      <path d="M391.005,87.786 L445.661,87.786 C450.911,87.786 455.167,91.454 455.167,95.979 L455.167,119.76 C455.167,124.285 450.911,127.953 445.661,127.953 L391.005,127.953 C385.756,127.953 381.5,124.285 381.5,119.76 L381.5,95.979 C381.5,91.454 385.756,87.786 391.005,87.786 z" fill-opacity="0" stroke="#000000" stroke-width="0.75"/>
    </g>
    <text transform="matrix(1, 0, 0, 1, 417.833, 107.953)">
      <tspan x="-28.017" y="-3.5" font-family="ArialMT" font-size="12" fill="#000000">Data Feed</tspan>
      <tspan x="-9.671" y="10.5" font-family="ArialMT" font-size="12" fill="#000000">API</tspan>
    </text>
    <path d="M283.418,187.167 L283.418,178.167" fill-opacity="0" stroke="#000000" stroke-width="1"/>
    <text transform="matrix(1, 0, 0, 1, 373.126, 200.888)">
      <tspan x="-56.03" y="1.833" font-family="ArialMT" font-size="12" fill="#000000">Aggregation Network</tspan>
    </text>
    <path d="M506.518,42.02 C506.526,39.7 510.026,39.7 510.026,42.088 L510.026,51.832 L523.667,60.035 L523.667,63.637 L510.091,59.168 L510.091,66.447 L513.23,68.912 L513.23,71.756 L508.386,70.252 L503.542,71.756 L503.542,68.912 L506.651,66.447 L506.651,59.168 L493.067,63.637 L493.067,60.035 L506.518,51.832 L506.518,42.02 z" fill="#000000"/>
    <path d="M558.797,106.581 L566.897,106.581 L566.889,98.489 L575,98.489 L575,90.378 L566.889,90.378 L566.897,82.286 L558.797,82.286 L558.805,90.378 L550.698,90.378 L550.698,98.489 L558.805,98.489 z" fill="#000000"/>
    <path d="M519.18,143.931 L519.18,140.151 L517.068,141.339 L515.992,140.723 L515.992,139.395 L519.124,137.615 L519.124,135.131 L516.852,136.591 L516.852,133.959 L514.68,135.207 L514.68,138.779 L513.492,139.515 L512.488,138.851 L512.488,136.459 L509.192,138.319 L507.784,137.727 L507.784,136.219 L511.244,134.327 L509.08,133.243 L509.08,131.859 L510.308,131.187 L513.412,133.015 L515.568,131.771 L515.516,131.731 L513.312,130.467 L515.452,129.139 L513.304,127.895 L510.2,129.715 L509.036,129.135 L509.036,127.759 L511.136,126.579 L507.784,124.759 L507.784,123.251 L509.072,122.587 L512.38,124.495 L512.38,122.067 L513.376,121.395 L514.592,122.099 L514.584,125.735 L516.804,127.003 L516.796,124.431 L519.124,125.679 L519.124,123.195 L515.992,121.415 L515.992,120.095 L517.068,119.471 L519.18,120.659 L519.18,116.887 L520.392,116.099 L521.608,116.887 L521.608,120.659 L523.796,119.447 L524.896,120.175 L524.896,121.363 L521.656,123.199 L521.656,125.683 L523.876,124.331 L523.876,127.035 L526.156,125.791 L526.156,121.899 L527.256,121.383 L528.412,121.899 L528.412,124.383 L531.812,122.547 L533,123.275 L533,124.683 L529.68,126.571 L531.756,127.735 L531.756,129.083 L530.68,129.675 L527.492,127.791 L525.288,129.191 L527.42,130.519 L525.228,131.783 L527.492,132.971 L530.68,131.191 L531.704,131.919 L531.704,133.199 L529.704,134.323 L532.892,136.215 L532.892,137.699 L531.54,138.315 L528.412,136.535 L528.412,138.895 L527.288,139.519 L526.188,138.895 L526.188,135.315 L523.876,133.995 L523.876,136.479 L521.656,135.127 L521.656,137.611 L524.788,139.391 L524.788,140.799 L523.712,141.339 L521.608,140.151 L521.608,143.931 L520.392,144.711 L519.18,143.931 z M518.312,130.487 L519.444,132.159 L521.556,132.159 L522.524,130.487 L521.5,128.707 L519.392,128.707 L518.312,130.487 z" fill="#000000"/>
    <text transform="matrix(1, 0, 0, 1, 530.409, 200.888)">
      <tspan x="-53.024" y="1.833" font-family="ArialMT" font-size="12" fill="#000000">Application Network</tspan>
    </text>
    <path d="M479.651,186.667 L579.167,186.667" fill-opacity="0" stroke="#000000" stroke-width="1"/>
    <path d="M479.651,186.667 L479.651,177.667" fill-opacity="0" stroke="#000000" stroke-width="1"/>
    <path d="M579.167,186.667 L579.167,178.167" fill-opacity="0" stroke="#000000" stroke-width="1"/>
    <path d="M374.167,108.456 L381.5,108.456" fill-opacity="0" stroke="#000000" stroke-width="1"/>
    <g>
      <path d="M455.167,108.456 L490.672,74.397" fill-opacity="0" stroke="#000000" stroke-width="1"/>
      <path d="M492.749,76.562 L496.445,68.859 L488.595,72.232 z" fill-opacity="0" stroke="#000000" stroke-width="1" stroke-opacity="1"/>
    </g>
    <g>
      <path d="M455.167,108.456 L536.906,97.978" fill-opacity="0" stroke="#000000" stroke-width="1"/>
      <path d="M537.288,100.953 L544.841,96.96 L536.525,95.002 z" fill-opacity="0" stroke="#000000" stroke-width="1" stroke-opacity="1"/>
    </g>
    <g>
      <path d="M455.167,108.456 L493.92,120.737" fill-opacity="0" stroke="#000000" stroke-width="1"/>
      <path d="M493.014,123.597 L501.547,123.154 L494.827,117.877 z" fill-opacity="0" stroke="#000000" stroke-width="1" stroke-opacity="1"/>
    </g>
  </g>
</svg>
